<mxfile host="app.diagrams.net" agent="Mozilla/5.0 (Windows NT 10.0; Win64; x64) AppleWebKit/537.36 (KHTML, like Gecko) Chrome/131.0.0.0 Safari/537.36" version="25.0.3">
  <diagram name="第 1 页" id="clKLF8cmqk-N_q2jb67s">
    <mxGraphModel dx="3728" dy="1106" grid="1" gridSize="10" guides="1" tooltips="1" connect="1" arrows="1" fold="1" page="1" pageScale="1" pageWidth="827" pageHeight="1169" math="0" shadow="0">
      <root>
        <mxCell id="0" />
        <mxCell id="1" parent="0" />
        <mxCell id="ewwLxB_O-W4zJdkdSMvH-1" value="" style="whiteSpace=wrap;html=1;labelBorderColor=#CC0000;strokeColor=#990000;strokeWidth=4;" vertex="1" parent="1">
          <mxGeometry x="-1160" y="1310" width="40" height="160" as="geometry" />
        </mxCell>
        <mxCell id="ewwLxB_O-W4zJdkdSMvH-2" value="" style="rounded=0;whiteSpace=wrap;html=1;fillColor=#eeeeee;strokeColor=#36393d;fontStyle=0;fontSize=20;" vertex="1" parent="1">
          <mxGeometry x="-1160" y="1310" width="40" height="160" as="geometry" />
        </mxCell>
        <mxCell id="ewwLxB_O-W4zJdkdSMvH-3" value="&lt;font style=&quot;font-size: 20px;&quot;&gt;boot.img&lt;/font&gt;" style="text;strokeColor=none;align=center;fillColor=none;html=1;verticalAlign=middle;whiteSpace=wrap;rounded=0;rotation=-90;" vertex="1" parent="1">
          <mxGeometry x="-1170" y="1375" width="60" height="30" as="geometry" />
        </mxCell>
        <mxCell id="ewwLxB_O-W4zJdkdSMvH-4" value="" style="rounded=0;whiteSpace=wrap;html=1;fillColor=#ffcc99;strokeColor=#36393d;fontStyle=0;fontSize=20;" vertex="1" parent="1">
          <mxGeometry x="-627" y="1310" width="57" height="160" as="geometry" />
        </mxCell>
        <mxCell id="ewwLxB_O-W4zJdkdSMvH-5" value="" style="rounded=0;whiteSpace=wrap;html=1;fontStyle=0;fontSize=20;" vertex="1" parent="1">
          <mxGeometry x="-1000" y="1310" width="40" height="160" as="geometry" />
        </mxCell>
        <mxCell id="ewwLxB_O-W4zJdkdSMvH-6" value="" style="whiteSpace=wrap;html=1;labelBorderColor=#CC0000;strokeColor=#990099;strokeWidth=4;" vertex="1" parent="1">
          <mxGeometry x="-570" y="1310" width="190" height="160" as="geometry" />
        </mxCell>
        <mxCell id="ewwLxB_O-W4zJdkdSMvH-7" value="" style="whiteSpace=wrap;html=1;labelBorderColor=#CC0000;strokeColor=#FFCCE6;strokeWidth=5;" vertex="1" parent="1">
          <mxGeometry x="-380" y="1310" width="310" height="160" as="geometry" />
        </mxCell>
        <mxCell id="ewwLxB_O-W4zJdkdSMvH-8" value="" style="whiteSpace=wrap;html=1;labelBorderColor=#CC0000;strokeColor=#7EA6E0;strokeWidth=4;" vertex="1" parent="1">
          <mxGeometry x="-70" y="1310" width="190" height="160" as="geometry" />
        </mxCell>
        <mxCell id="ewwLxB_O-W4zJdkdSMvH-9" value="" style="rounded=0;whiteSpace=wrap;html=1;fillColor=#FCFFDE;strokeColor=#36393d;fontStyle=0;fontSize=20;" vertex="1" parent="1">
          <mxGeometry x="-957" y="1310" width="140" height="160" as="geometry" />
        </mxCell>
        <mxCell id="ewwLxB_O-W4zJdkdSMvH-10" value="" style="rounded=0;whiteSpace=wrap;html=1;fillColor=#FCFFDE;strokeColor=#36393d;fontStyle=0;fontSize=20;" vertex="1" parent="1">
          <mxGeometry x="-570" y="1310" width="140" height="160" as="geometry" />
        </mxCell>
        <mxCell id="ewwLxB_O-W4zJdkdSMvH-11" value="" style="rounded=0;whiteSpace=wrap;html=1;fillColor=#FCFFDE;strokeColor=#36393d;fontStyle=0;fontSize=20;" vertex="1" parent="1">
          <mxGeometry x="-380" y="1310" width="70" height="160" as="geometry" />
        </mxCell>
        <mxCell id="ewwLxB_O-W4zJdkdSMvH-12" value="&lt;font style=&quot;font-size: 16px;&quot;&gt;/boot/grub&lt;/font&gt;" style="text;strokeColor=none;align=center;fillColor=none;html=1;verticalAlign=middle;whiteSpace=wrap;rounded=0;rotation=-90;" vertex="1" parent="1">
          <mxGeometry x="-415" y="1380" width="140" height="30" as="geometry" />
        </mxCell>
        <mxCell id="ewwLxB_O-W4zJdkdSMvH-13" value="&lt;font style=&quot;font-size: 19px;&quot;&gt;MRB&lt;/font&gt;" style="text;strokeColor=none;align=center;fillColor=none;html=1;verticalAlign=middle;whiteSpace=wrap;rounded=0;fontStyle=1;rotation=-90;" vertex="1" parent="1">
          <mxGeometry x="-1170" y="1490" width="90" height="30" as="geometry" />
        </mxCell>
        <mxCell id="ewwLxB_O-W4zJdkdSMvH-14" value="&lt;span style=&quot;font-size: 19px;&quot;&gt;/boot/efi&lt;/span&gt;" style="text;strokeColor=none;align=center;fillColor=none;html=1;verticalAlign=middle;whiteSpace=wrap;rounded=0;fontStyle=1" vertex="1" parent="1">
          <mxGeometry x="-890" y="1180" width="90" height="90" as="geometry" />
        </mxCell>
        <mxCell id="ewwLxB_O-W4zJdkdSMvH-15" value="&lt;font style=&quot;font-size: 19px;&quot;&gt;sda4&lt;/font&gt;&lt;div&gt;&lt;font style=&quot;font-size: 11px;&quot;&gt;ext2&lt;/font&gt;&lt;/div&gt;&lt;div&gt;&lt;font style=&quot;font-size: 11px;&quot;&gt;/boot&lt;/font&gt;&lt;/div&gt;&lt;div&gt;&lt;font style=&quot;font-size: 11px;&quot;&gt;~300 MiB&lt;/font&gt;&lt;/div&gt;" style="text;strokeColor=none;align=center;fillColor=none;html=1;verticalAlign=middle;whiteSpace=wrap;rounded=0;fontStyle=1" vertex="1" parent="1">
          <mxGeometry x="-300" y="1490" width="150" height="70" as="geometry" />
        </mxCell>
        <mxCell id="ewwLxB_O-W4zJdkdSMvH-16" value="&lt;font style=&quot;font-size: 19px;&quot;&gt;sda3&lt;/font&gt;&lt;div&gt;&lt;span style=&quot;font-size: 11px;&quot;&gt;ext4&amp;nbsp;&amp;nbsp;&lt;/span&gt;&lt;/div&gt;&lt;div&gt;&lt;span style=&quot;font-size: 11px;&quot;&gt;/&amp;nbsp;&lt;/span&gt;&lt;/div&gt;&lt;div&gt;&lt;span style=&quot;font-size: 11px;&quot;&gt;10-20GB&lt;/span&gt;&lt;/div&gt;" style="text;strokeColor=none;align=center;fillColor=none;html=1;verticalAlign=middle;whiteSpace=wrap;rounded=0;fontStyle=1" vertex="1" parent="1">
          <mxGeometry x="-540" y="1465" width="150" height="115" as="geometry" />
        </mxCell>
        <mxCell id="ewwLxB_O-W4zJdkdSMvH-17" value="&lt;font style=&quot;font-size: 19px;&quot;&gt;sda5&lt;/font&gt;&lt;div&gt;&lt;span style=&quot;font-size: 11px;&quot;&gt;ext4&amp;nbsp;&amp;nbsp;&lt;/span&gt;&lt;/div&gt;&lt;div&gt;&lt;span style=&quot;font-size: 11px;&quot;&gt;/home&lt;/span&gt;&lt;/div&gt;&lt;div&gt;&lt;span style=&quot;font-size: 11px;&quot;&gt;as much as required&lt;/span&gt;&lt;/div&gt;" style="text;strokeColor=none;align=center;fillColor=none;html=1;verticalAlign=middle;whiteSpace=wrap;rounded=0;fontStyle=1" vertex="1" parent="1">
          <mxGeometry x="-40" y="1470" width="150" height="90" as="geometry" />
        </mxCell>
        <mxCell id="ewwLxB_O-W4zJdkdSMvH-18" value="" style="rounded=0;whiteSpace=wrap;html=1;fillColor=#FCFFDE;strokeColor=#36393d;fontStyle=0;fontSize=20;" vertex="1" parent="1">
          <mxGeometry x="-70" y="1310" width="50" height="160" as="geometry" />
        </mxCell>
        <mxCell id="ewwLxB_O-W4zJdkdSMvH-19" value="" style="rounded=0;whiteSpace=wrap;html=1;fillColor=#FCFFDE;strokeColor=#36393d;fontStyle=0;fontSize=20;" vertex="1" parent="1">
          <mxGeometry x="-1120" y="1310" width="20" height="160" as="geometry" />
        </mxCell>
        <mxCell id="ewwLxB_O-W4zJdkdSMvH-20" value="" style="rounded=0;whiteSpace=wrap;html=1;fillColor=#FCFFDE;strokeColor=#36393d;fontStyle=0;fontSize=20;" vertex="1" parent="1">
          <mxGeometry x="-1100" y="1310" width="100" height="160" as="geometry" />
        </mxCell>
        <mxCell id="ewwLxB_O-W4zJdkdSMvH-21" value="&lt;font style=&quot;font-size: 20px;&quot;&gt;Partition entry array&lt;/font&gt;" style="text;strokeColor=none;align=center;fillColor=none;html=1;verticalAlign=middle;whiteSpace=wrap;rounded=0;rotation=-60;" vertex="1" parent="1">
          <mxGeometry x="-1080" y="1380" width="60" height="30" as="geometry" />
        </mxCell>
        <mxCell id="ewwLxB_O-W4zJdkdSMvH-22" value="&lt;font style=&quot;font-size: 16px;&quot;&gt;Empty&lt;/font&gt;" style="text;strokeColor=none;align=center;fillColor=none;html=1;verticalAlign=middle;whiteSpace=wrap;rounded=0;rotation=-90;" vertex="1" parent="1">
          <mxGeometry x="-1050" y="1380" width="140" height="30" as="geometry" />
        </mxCell>
        <mxCell id="ewwLxB_O-W4zJdkdSMvH-24" value="" style="whiteSpace=wrap;html=1;labelBorderColor=#CC0000;strokeColor=#7EA6E0;strokeWidth=5;fillColor=none;" vertex="1" parent="1">
          <mxGeometry x="-957" y="1310" width="190" height="160" as="geometry" />
        </mxCell>
        <mxCell id="ewwLxB_O-W4zJdkdSMvH-25" value="&lt;font style=&quot;font-size: 20px;&quot;&gt;core.img&lt;/font&gt;" style="text;strokeColor=none;align=center;fillColor=none;html=1;verticalAlign=middle;whiteSpace=wrap;rounded=0;rotation=-90;" vertex="1" parent="1">
          <mxGeometry x="-632" y="1380" width="60" height="30" as="geometry" />
        </mxCell>
        <mxCell id="ewwLxB_O-W4zJdkdSMvH-26" value="" style="whiteSpace=wrap;html=1;labelBorderColor=#CC0000;strokeColor=#4C0099;strokeWidth=5;fillColor=none;" vertex="1" parent="1">
          <mxGeometry x="-627" y="1310" width="57" height="160" as="geometry" />
        </mxCell>
        <mxCell id="ewwLxB_O-W4zJdkdSMvH-27" value="&lt;font style=&quot;font-size: 12px;&quot;&gt;sda2&lt;/font&gt;&lt;div style=&quot;&quot;&gt;&lt;font style=&quot;font-weight: normal; font-size: 12px;&quot;&gt;BIOS grub&lt;/font&gt;&lt;/div&gt;&lt;div style=&quot;&quot;&gt;&lt;font style=&quot;font-weight: normal; font-size: 12px;&quot;&gt;1Mb&lt;/font&gt;&lt;/div&gt;" style="text;strokeColor=none;align=center;fillColor=none;html=1;verticalAlign=middle;whiteSpace=wrap;rounded=0;fontStyle=1" vertex="1" parent="1">
          <mxGeometry x="-677" y="1490" width="150" height="60" as="geometry" />
        </mxCell>
        <mxCell id="ewwLxB_O-W4zJdkdSMvH-28" value="" style="edgeStyle=none;orthogonalLoop=1;jettySize=auto;html=1;rounded=0;" edge="1" parent="1" source="ewwLxB_O-W4zJdkdSMvH-23">
          <mxGeometry width="80" relative="1" as="geometry">
            <mxPoint x="-660" y="1394.76" as="sourcePoint" />
            <mxPoint x="-615" y="1394.76" as="targetPoint" />
            <Array as="points" />
          </mxGeometry>
        </mxCell>
        <mxCell id="ewwLxB_O-W4zJdkdSMvH-29" value="" style="edgeStyle=none;orthogonalLoop=1;jettySize=auto;html=1;rounded=0;" edge="1" parent="1" target="ewwLxB_O-W4zJdkdSMvH-12">
          <mxGeometry width="80" relative="1" as="geometry">
            <mxPoint x="-565" y="1394.58" as="sourcePoint" />
            <mxPoint x="-505" y="1394.9159999999997" as="targetPoint" />
            <Array as="points" />
          </mxGeometry>
        </mxCell>
        <mxCell id="ewwLxB_O-W4zJdkdSMvH-30" value="&lt;font style=&quot;font-size: 19px;&quot;&gt;GPT&lt;/font&gt;" style="text;strokeColor=none;align=center;fillColor=none;html=1;verticalAlign=middle;whiteSpace=wrap;rounded=0;fontStyle=1;rotation=-90;" vertex="1" parent="1">
          <mxGeometry x="-1095" y="1490" width="90" height="30" as="geometry" />
        </mxCell>
        <mxCell id="ewwLxB_O-W4zJdkdSMvH-31" value="" style="shape=image;verticalLabelPosition=bottom;labelBackgroundColor=default;verticalAlign=top;aspect=fixed;imageAspect=0;image=https://upload.wikimedia.org/wikipedia/commons/4/45/GNU_GRUB_components.svg;" vertex="1" parent="1">
          <mxGeometry x="-1071.1100000000001" y="540" width="1031.11" height="580" as="geometry" />
        </mxCell>
        <mxCell id="ewwLxB_O-W4zJdkdSMvH-32" value="" style="edgeStyle=none;orthogonalLoop=1;jettySize=auto;html=1;rounded=0;" edge="1" parent="1" source="ewwLxB_O-W4zJdkdSMvH-3" target="ewwLxB_O-W4zJdkdSMvH-23">
          <mxGeometry width="80" relative="1" as="geometry">
            <mxPoint x="-1125" y="1390" as="sourcePoint" />
            <mxPoint x="-615" y="1394.76" as="targetPoint" />
            <Array as="points" />
          </mxGeometry>
        </mxCell>
        <mxCell id="ewwLxB_O-W4zJdkdSMvH-23" value="" style="whiteSpace=wrap;html=1;labelBorderColor=#CC0000;strokeColor=#00CC00;strokeWidth=4;fillColor=none;" vertex="1" parent="1">
          <mxGeometry x="-1120" y="1310" width="160" height="160" as="geometry" />
        </mxCell>
        <mxCell id="ewwLxB_O-W4zJdkdSMvH-33" value="&lt;font style=&quot;font-size: 22px;&quot;&gt;&lt;b&gt;/boot/efi&lt;/b&gt;&lt;/font&gt;" style="rounded=0;whiteSpace=wrap;html=1;strokeColor=#990000;strokeWidth=4;" vertex="1" parent="1">
          <mxGeometry x="-1250" y="1169" width="120" height="60" as="geometry" />
        </mxCell>
      </root>
    </mxGraphModel>
  </diagram>
</mxfile>
